<?xml version="1.0" encoding="utf-8"?>
<!-- Generator: Adobe Illustrator 15.0.0, SVG Export Plug-In . SVG Version: 6.00 Build 0)  -->
<!DOCTYPE svg PUBLIC "-//W3C//DTD SVG 1.1//EN" "http://www.w3.org/Graphics/SVG/1.1/DTD/svg11.dtd">
<svg version="1.1" id="tomroberts101.com" xmlns="http://www.w3.org/2000/svg" xmlns:xlink="http://www.w3.org/1999/xlink" x="0px"
	 y="0px" width="1024px" height="1024px" viewBox="0 0 1024 1024" enable-background="new 0 0 1024 1024" xml:space="preserve">
<g id="Acid_Smiley_-_tomroberts101.com">
	<g id="Face">
		<circle fill="#F6EB13" stroke="#000000" stroke-width="50" cx="513.541" cy="512.001" r="461.476"/>
	</g>
	<ellipse id="L_Eye" stroke="#000000" stroke-miterlimit="10" cx="393.328" cy="332.115" rx="50" ry="136.885"/>
	<ellipse id="R_Eye" stroke="#000000" stroke-miterlimit="10" cx="644.148" cy="332.115" rx="50" ry="136.885"/>
	<g id="Mouth">
		<g>
			<path d="M820.57,534.474c-0.027,11.172-0.692,22.313-2.008,33.407c-0.155,1.314-0.33,2.627-0.505,3.939
				c0.383-2.874-0.231,1.432-0.263,1.632c-0.396,2.604-0.85,5.197-1.322,7.787c-1.017,5.582-2.244,11.123-3.604,16.631
				c-2.593,10.51-5.876,20.842-9.677,30.975c-0.907,2.421-1.866,4.823-2.841,7.219c-1.606,3.947,1.057-2.455-0.621,1.46
				c-0.509,1.187-1.033,2.366-1.559,3.546c-2.272,5.108-4.73,10.132-7.3,15.097c-4.94,9.547-10.481,18.776-16.45,27.714
				c-2.871,4.297-5.882,8.499-8.974,12.64c-2.551,3.417,1.642-2.109-0.97,1.265c-0.792,1.023-1.598,2.036-2.403,3.05
				c-1.881,2.367-3.813,4.692-5.765,7.001c-7,8.281-14.494,16.136-22.33,23.627c-3.783,3.616-7.68,7.112-11.639,10.533
				c-1.986,1.716-4.005,3.395-6.033,5.061c-1.017,0.835-2.043,1.656-3.068,2.478c-0.687,0.547-1.375,1.091-2.065,1.633
				c1.134-0.881,1.047-0.818-0.26,0.188c-17.628,13.523-36.737,25.072-56.744,34.711c-4.879,2.351-9.828,4.551-14.815,6.659
				c2.788-1.179-1.359,0.536-1.566,0.62c-1.264,0.51-2.533,1.005-3.804,1.499c-2.972,1.157-5.967,2.254-8.971,3.325
				c-10.843,3.869-21.902,7.111-33.081,9.853c-24.114,5.914-43.483,8.363-68.064,9.123c-12.124,0.375-24.265,0.054-36.361-0.819
				c-5.716-0.413-11.417-1.001-17.105-1.695c0.011,0.001-4.62-0.607-2.045-0.25c-1.405-0.195-2.807-0.407-4.209-0.619
				c-3.259-0.493-6.506-1.054-9.75-1.641c-22.689-4.104-44.92-10.641-66.295-19.268c-0.08-0.032-4.202-1.755-1.717-0.705
				c-1.25-0.527-2.492-1.071-3.735-1.614c-2.479-1.084-4.938-2.214-7.39-3.358c-5.286-2.467-10.489-5.105-15.636-7.85
				c-9.806-5.229-19.309-11.014-28.526-17.218c-4.388-2.953-8.684-6.041-12.92-9.208c-3.477-2.6,2.088,1.624-1.342-1.03
				c-1.041-0.805-2.072-1.623-3.103-2.441c-2.401-1.906-4.762-3.861-7.106-5.836c-8.327-7.016-16.243-14.512-23.787-22.359
				c-3.602-3.747-7.084-7.607-10.49-11.533c-1.699-1.958-3.36-3.949-5.008-5.951c-0.824-1-1.634-2.01-2.444-3.021
				c-0.538-0.674-1.074-1.351-1.606-2.03c0.903,1.164,0.854,1.096-0.147-0.204c-6.55-8.539-12.579-17.472-18.154-26.674
				c-6.238-10.298-11.763-21.021-16.655-32.019c-0.525-1.18-1.034-2.366-1.542-3.554c-0.655-1.549-0.671-1.586-0.047-0.11
				c-0.327-0.798-0.649-1.597-0.969-2.396c-1.125-2.802-2.186-5.628-3.219-8.465c-2.222-6.096-4.188-12.283-5.979-18.52
				c-3.374-11.754-5.882-23.747-7.669-35.841c-0.043-0.29-0.628-4.621-0.23-1.518c-0.225-1.754-0.42-3.512-0.612-5.271
				c-0.336-3.09-0.598-6.188-0.83-9.288c-0.502-6.709-0.711-13.438-0.728-20.164c-0.019-7.626-6.224-14.053-13.902-14.104
				c-7.575-0.051-14.123,6.274-14.104,13.902c0.219,90.653,43.507,176.228,113.486,233.214
				c73.923,60.198,171.734,86.684,266.102,74.771c92.81-11.717,178.37-59.298,233.911-135.057
				c36.504-49.792,56.424-111.029,56.572-172.727c0.019-7.627-6.251-14.053-13.902-14.104
				C827.071,520.521,820.589,526.846,820.57,534.474L820.57,534.474z"/>
		</g>
	</g>
	<g id="L_Dimple">
		<g>
			<path d="M167.554,552.793c-4.997,4.063,0.136,0.081,1.723-0.855c1.581-0.934,3.223-1.759,4.882-2.542
				c3.292-1.556-1.442,0.52,0.852-0.391c1.199-0.476,2.419-0.894,3.641-1.304c2.793-0.937,5.658-1.641,8.54-2.243
				c0.424-0.089,5.014-0.837,2.844-0.559c1.788-0.229,3.586-0.354,5.384-0.467c8.099-0.504,16.064,0.379,23.946,2.2
				c6.64,1.534,13.502-1.998,15.359-8.758c1.75-6.369-2.126-13.827-8.758-15.359c-25.207-5.824-55.287-4.304-76.188,12.691
				c-5.288,4.301-4.354,13.287,0.095,17.681C155.106,558.055,162.267,557.092,167.554,552.793L167.554,552.793z"/>
		</g>
	</g>
	<g id="R_Dimple">
		<g>
			<path d="M875.366,531.783c-20.822-16.93-50.947-18.407-76.028-12.612c-15.725,3.634-9.201,27.77,6.471,24.148
				c14.625-3.379,27.526-3.18,40.714,1.038c1.228,0.393,2.437,0.843,3.641,1.303c2.189,0.835-2.172-1.001,0.997,0.448
				c1.669,0.764,3.292,1.627,4.882,2.543c1.702,0.979,6.324,4.636,1.738,0.907c5.275,4.289,12.541,5.109,17.681-0.095
				C879.897,544.971,880.664,536.091,875.366,531.783L875.366,531.783z"/>
		</g>
	</g>
</g>
</svg>
