<svg xmlns="http://www.w3.org/2000/svg" xmlns:xlink="http://www.w3.org/1999/xlink" fill="none" style="border-radius:0" viewBox="0 0 1600 1600"><path fill="#000" d="M0 0h1600v1600H0z"/><path fill="#f2371f" fill-opacity=".325" d="M0 0h1600v1600H0z"/><g clip-path="url(#clip0_50_327)" filter="url(#filter0_f_50_327)"><path fill="#907CFF" d="M467 369h1003v1030H467z"/>,<path fill="#1BC47D" d="M20 760h828v1222H20z"/>,<path fill="#00c5df" d="M650 124h881v975H650z"/>,<path fill="#1BC47D" d="M52 299h1097v860H52z"/>,<path fill="#907CFF" d="M469 459h941v1158H469z"/></g><g style="mix-blend-mode:overlay"><path fill="url(#pattern0)" fill-opacity=".75" d="M0 0h1600v1600H0z"/><path d="M0 0h1600v1600H0z" style="fill:gray;stroke:transparent;filter:url(#feTurb02)"/></g><defs xmlns="http://www.w3.org/2000/svg"><filter id="feTurb02" width="100%" height="100%" x="0%" y="0%" filterUnits="objectBoundingBox"><feTurbulence baseFrequency=".7" numOctaves="3" result="out1"/><feComposite in="out1" in2="SourceGraphic" operator="in" result="out2"/><feBlend in="SourceGraphic" in2="out2" mode="overlay" result="out3"/></filter><filter id="filter0_f_50_327" width="1600" height="1600" x="0" y="0" color-interpolation-filters="sRGB" filterUnits="userSpaceOnUse"><feFlood flood-opacity="0" result="BackgroundImageFix"/><feBlend in="SourceGraphic" in2="BackgroundImageFix" result="shape"/><feGaussianBlur result="effect1_foregroundBlur_50_327" stdDeviation="250"/></filter><clipPath id="clip0_50_327"><path fill="#fff" d="M0 0h1600v1600H0z"/></clipPath><pattern id="pattern0" width=".084" height=".084" patternContentUnits="objectBoundingBox"><use xlink:href="#image0_50_327" transform="scale(.001)"/></pattern></defs></svg>
